<svg width="58" height="26" viewBox="0 0 58 26" fill="none" xmlns="http://www.w3.org/2000/svg">
<path d="M0 13C0 5.8203 5.8203 0 13 0H45C52.1797 0 58 5.8203 58 13C58 20.1797 52.1797 26 45 26H13C5.8203 26 0 20.1797 0 13Z" fill="#93D39B"/>
<path d="M24.49 18H18.064V8.662H24.49V10.132H19.688V12.498H24.35V13.954H19.688V16.516H24.49V18ZM32.9142 10.132H30.0722V18H28.4202V10.132H25.5782V8.662H32.9142V10.132ZM41.3362 18H39.6842V13.968H35.8762V18H34.2242V8.662H35.8762V12.484H39.6842V8.662H41.3362V18Z" fill="black"/>
</svg>
