<svg width="73" height="30" viewBox="0 0 73 30" fill="none" xmlns="http://www.w3.org/2000/svg">
<rect width="73" height="30" rx="8" fill="#93D39B"/>
<path d="M21 11.54C21 13.06 20.5267 14.1333 19.58 14.76C19.1 15.0667 18.16 15.42 16.76 15.82C16.64 15.8467 16.54 15.8733 16.46 15.9C15.5 16.1667 14.9 16.42 14.66 16.66C14.4333 16.9 14.32 17.3667 14.32 18.06V18.98H20.98V21H12.04V17.7C12.04 17.1533 12.1133 16.6733 12.26 16.26C12.42 15.8467 12.6133 15.52 12.84 15.28C13.0667 15.04 13.3733 14.8267 13.76 14.64C14.1467 14.44 14.5 14.2933 14.82 14.2C15.14 14.1067 15.5467 13.9933 16.04 13.86C16.5467 13.7133 16.9533 13.5867 17.26 13.48C17.8333 13.28 18.22 13.0533 18.42 12.8C18.6333 12.5467 18.74 12.1267 18.74 11.54C18.74 10.7667 18.5933 10.2467 18.3 9.98C18.02 9.7 17.4267 9.56 16.52 9.56C15.6933 9.56 15.12 9.65333 14.8 9.84C14.4933 10.0267 14.34 10.3733 14.34 10.88H12.1C12.1 10.2267 12.2067 9.67333 12.42 9.22C12.6467 8.76667 12.9667 8.42 13.38 8.18C13.8067 7.94 14.2667 7.77333 14.76 7.68C15.2533 7.57333 15.8267 7.52 16.48 7.52C18.0667 7.52 19.2133 7.82 19.92 8.42C20.64 9.00667 21 10.0467 21 11.54ZM25.8938 19.74C25.8938 20.6867 25.4338 21.16 24.5138 21.16C23.5938 21.16 23.1338 20.6867 23.1338 19.74C23.1338 18.82 23.5938 18.36 24.5138 18.36C25.4338 18.36 25.8938 18.82 25.8938 19.74ZM37.1775 16.7C37.1775 18.3267 36.8042 19.48 36.0575 20.16C35.3108 20.8267 34.1308 21.16 32.5175 21.16C31.1975 21.16 30.1508 20.9133 29.3775 20.42C28.6042 19.9267 28.2175 19.0533 28.2175 17.8H30.4375C30.4375 18.3067 30.5842 18.6533 30.8775 18.84C31.1708 19.0133 31.7175 19.1 32.5175 19.1C33.4775 19.1 34.1175 18.9467 34.4375 18.64C34.7575 18.3333 34.9175 17.7133 34.9175 16.78C34.9175 15.7533 34.7908 15.0667 34.5375 14.72C34.2975 14.3733 33.7108 14.2 32.7775 14.2C31.9375 14.2 31.3575 14.32 31.0375 14.56C30.7308 14.7867 30.5775 15.1333 30.5775 15.6H28.3775V7.66H36.7575V9.7H30.5575V12.84C31.0108 12.3867 31.7642 12.16 32.8175 12.16C34.4708 12.16 35.6108 12.4867 36.2375 13.14C36.8642 13.78 37.1775 14.9667 37.1775 16.7ZM56.5145 7.66L49.7745 21H48.0745L54.7945 7.66H56.5145ZM54.5545 17V16.48C54.5545 16.0133 54.5612 15.6467 54.5745 15.38C54.6012 15.1 54.6612 14.78 54.7545 14.42C54.8612 14.0467 55.0079 13.7667 55.1945 13.58C55.3945 13.38 55.6812 13.2067 56.0545 13.06C56.4279 12.9133 56.8879 12.84 57.4345 12.84C57.9812 12.84 58.4412 12.9133 58.8145 13.06C59.1879 13.2067 59.4679 13.38 59.6545 13.58C59.8545 13.7667 60.0012 14.0467 60.0945 14.42C60.2012 14.78 60.2612 15.1 60.2745 15.38C60.3012 15.6467 60.3145 16.0133 60.3145 16.48V17V17.52C60.3145 17.9867 60.3012 18.36 60.2745 18.64C60.2612 18.9067 60.2012 19.2267 60.0945 19.6C60.0012 19.96 59.8545 20.24 59.6545 20.44C59.4679 20.6267 59.1879 20.7933 58.8145 20.94C58.4412 21.0867 57.9812 21.16 57.4345 21.16C56.8879 21.16 56.4279 21.0867 56.0545 20.94C55.6812 20.7933 55.3945 20.6267 55.1945 20.44C55.0079 20.24 54.8612 19.96 54.7545 19.6C54.6612 19.2267 54.6012 18.9067 54.5745 18.64C54.5612 18.36 54.5545 17.9867 54.5545 17.52V17ZM58.6345 19.18C58.7279 18.8733 58.7745 18.1467 58.7745 17C58.7745 15.8533 58.7279 15.1267 58.6345 14.82C58.4879 14.3933 58.0879 14.18 57.4345 14.18C56.7812 14.18 56.3812 14.3933 56.2345 14.82C56.1412 15.1267 56.0945 15.8533 56.0945 17C56.0945 18.1467 56.1412 18.8733 56.2345 19.18C56.3679 19.6067 56.7679 19.82 57.4345 19.82C58.1012 19.82 58.5012 19.6067 58.6345 19.18ZM44.2745 11.66V11.14C44.2745 10.6733 44.2812 10.3067 44.2945 10.04C44.3212 9.76 44.3812 9.44 44.4745 9.08C44.5812 8.70667 44.7279 8.42667 44.9145 8.24C45.1145 8.04 45.4012 7.86667 45.7745 7.72C46.1479 7.57333 46.6079 7.5 47.1545 7.5C47.7012 7.5 48.1612 7.57333 48.5345 7.72C48.9079 7.86667 49.1879 8.04 49.3745 8.24C49.5745 8.42667 49.7212 8.70667 49.8145 9.08C49.9212 9.44 49.9812 9.76 49.9945 10.04C50.0212 10.3067 50.0345 10.6733 50.0345 11.14V11.66V12.18C50.0345 12.6467 50.0212 13.02 49.9945 13.3C49.9812 13.5667 49.9212 13.8867 49.8145 14.26C49.7212 14.62 49.5745 14.9 49.3745 15.1C49.1879 15.2867 48.9079 15.4533 48.5345 15.6C48.1612 15.7467 47.7012 15.82 47.1545 15.82C46.6079 15.82 46.1479 15.7467 45.7745 15.6C45.4012 15.4533 45.1145 15.2867 44.9145 15.1C44.7279 14.9 44.5812 14.62 44.4745 14.26C44.3812 13.8867 44.3212 13.5667 44.2945 13.3C44.2812 13.02 44.2745 12.6467 44.2745 12.18V11.66ZM48.3545 13.84C48.4479 13.5333 48.4945 12.8067 48.4945 11.66C48.4945 10.5133 48.4479 9.78667 48.3545 9.48C48.2079 9.05333 47.8079 8.84 47.1545 8.84C46.5012 8.84 46.1012 9.05333 45.9545 9.48C45.8612 9.78667 45.8145 10.5133 45.8145 11.66C45.8145 12.8067 45.8612 13.5333 45.9545 13.84C46.0879 14.2667 46.4879 14.48 47.1545 14.48C47.8212 14.48 48.2212 14.2667 48.3545 13.84Z" fill="black"/>
</svg>
